<?xml version="1.0" encoding="utf-8"?>
<svg xmlns="http://www.w3.org/2000/svg" xmlns:xlink="http://www.w3.org/1999/xlink" width="672" height="480" viewBox="0 0 2688 1920">
<defs>
  <clipPath id="clip030">
    <rect x="0" y="0" width="2688" height="1920"/>
  </clipPath>
</defs>
<path clip-path="url(#clip030)" d="
M0 1920 L2688 1920 L2688 0 L0 0  Z
  " fill="#ffffff" fill-rule="evenodd" fill-opacity="1"/>
<defs>
  <clipPath id="clip031">
    <rect x="537" y="0" width="1883" height="1883"/>
  </clipPath>
</defs>
<path clip-path="url(#clip030)" d="
M115.057 1800.78 L2640.76 1800.78 L2640.76 47.2441 L115.057 47.2441  Z
  " fill="#ffffff" fill-rule="evenodd" fill-opacity="1"/>
<defs>
  <clipPath id="clip032">
    <rect x="115" y="47" width="2527" height="1755"/>
  </clipPath>
</defs>
<polyline clip-path="url(#clip032)" style="stroke:#000000; stroke-linecap:butt; stroke-linejoin:round; stroke-width:2; stroke-opacity:0.1; fill:none" points="
  186.539,1800.78 186.539,47.2441 
  "/>
<polyline clip-path="url(#clip032)" style="stroke:#000000; stroke-linecap:butt; stroke-linejoin:round; stroke-width:2; stroke-opacity:0.1; fill:none" points="
  782.223,1800.78 782.223,47.2441 
  "/>
<polyline clip-path="url(#clip032)" style="stroke:#000000; stroke-linecap:butt; stroke-linejoin:round; stroke-width:2; stroke-opacity:0.1; fill:none" points="
  1377.91,1800.78 1377.91,47.2441 
  "/>
<polyline clip-path="url(#clip032)" style="stroke:#000000; stroke-linecap:butt; stroke-linejoin:round; stroke-width:2; stroke-opacity:0.1; fill:none" points="
  1973.59,1800.78 1973.59,47.2441 
  "/>
<polyline clip-path="url(#clip032)" style="stroke:#000000; stroke-linecap:butt; stroke-linejoin:round; stroke-width:2; stroke-opacity:0.1; fill:none" points="
  2569.27,1800.78 2569.27,47.2441 
  "/>
<polyline clip-path="url(#clip030)" style="stroke:#000000; stroke-linecap:butt; stroke-linejoin:round; stroke-width:4; stroke-opacity:1; fill:none" points="
  115.057,1800.78 2640.76,1800.78 
  "/>
<polyline clip-path="url(#clip030)" style="stroke:#000000; stroke-linecap:butt; stroke-linejoin:round; stroke-width:4; stroke-opacity:1; fill:none" points="
  186.539,1800.78 186.539,1781.88 
  "/>
<polyline clip-path="url(#clip030)" style="stroke:#000000; stroke-linecap:butt; stroke-linejoin:round; stroke-width:4; stroke-opacity:1; fill:none" points="
  782.223,1800.78 782.223,1781.88 
  "/>
<polyline clip-path="url(#clip030)" style="stroke:#000000; stroke-linecap:butt; stroke-linejoin:round; stroke-width:4; stroke-opacity:1; fill:none" points="
  1377.91,1800.78 1377.91,1781.88 
  "/>
<polyline clip-path="url(#clip030)" style="stroke:#000000; stroke-linecap:butt; stroke-linejoin:round; stroke-width:4; stroke-opacity:1; fill:none" points="
  1973.59,1800.78 1973.59,1781.88 
  "/>
<polyline clip-path="url(#clip030)" style="stroke:#000000; stroke-linecap:butt; stroke-linejoin:round; stroke-width:4; stroke-opacity:1; fill:none" points="
  2569.27,1800.78 2569.27,1781.88 
  "/>
<path clip-path="url(#clip030)" d="M156.482 1848.65 L186.157 1848.65 L186.157 1852.59 L156.482 1852.59 L156.482 1848.65 Z" fill="#000000" fill-rule="evenodd" fill-opacity="1" /><path clip-path="url(#clip030)" d="M200.278 1861.55 L216.597 1861.55 L216.597 1865.48 L194.653 1865.48 L194.653 1861.55 Q197.315 1858.79 201.898 1854.16 Q206.504 1849.51 207.685 1848.17 Q209.93 1845.65 210.81 1843.91 Q211.713 1842.15 211.713 1840.46 Q211.713 1837.71 209.768 1835.97 Q207.847 1834.23 204.745 1834.23 Q202.546 1834.23 200.092 1835 Q197.662 1835.76 194.884 1837.31 L194.884 1832.59 Q197.708 1831.46 200.162 1830.88 Q202.616 1830.3 204.653 1830.3 Q210.023 1830.3 213.217 1832.98 Q216.412 1835.67 216.412 1840.16 Q216.412 1842.29 215.602 1844.21 Q214.815 1846.11 212.708 1848.7 Q212.129 1849.37 209.028 1852.59 Q205.926 1855.78 200.278 1861.55 Z" fill="#000000" fill-rule="evenodd" fill-opacity="1" /><path clip-path="url(#clip030)" d="M751.98 1848.65 L781.656 1848.65 L781.656 1852.59 L751.98 1852.59 L751.98 1848.65 Z" fill="#000000" fill-rule="evenodd" fill-opacity="1" /><path clip-path="url(#clip030)" d="M792.558 1861.55 L800.197 1861.55 L800.197 1835.18 L791.887 1836.85 L791.887 1832.59 L800.151 1830.92 L804.827 1830.92 L804.827 1861.55 L812.466 1861.55 L812.466 1865.48 L792.558 1865.48 L792.558 1861.55 Z" fill="#000000" fill-rule="evenodd" fill-opacity="1" /><path clip-path="url(#clip030)" d="M1377.91 1834 Q1374.3 1834 1372.47 1837.57 Q1370.66 1841.11 1370.66 1848.24 Q1370.66 1855.34 1372.47 1858.91 Q1374.3 1862.45 1377.91 1862.45 Q1381.54 1862.45 1383.35 1858.91 Q1385.18 1855.34 1385.18 1848.24 Q1385.18 1841.11 1383.35 1837.57 Q1381.54 1834 1377.91 1834 M1377.91 1830.3 Q1383.72 1830.3 1386.77 1834.9 Q1389.85 1839.49 1389.85 1848.24 Q1389.85 1856.96 1386.77 1861.57 Q1383.72 1866.15 1377.91 1866.15 Q1372.1 1866.15 1369.02 1861.57 Q1365.96 1856.96 1365.96 1848.24 Q1365.96 1839.49 1369.02 1834.9 Q1372.1 1830.3 1377.91 1830.3 Z" fill="#000000" fill-rule="evenodd" fill-opacity="1" /><path clip-path="url(#clip030)" d="M1963.97 1861.55 L1971.61 1861.55 L1971.61 1835.18 L1963.3 1836.85 L1963.3 1832.59 L1971.56 1830.92 L1976.24 1830.92 L1976.24 1861.55 L1983.88 1861.55 L1983.88 1865.48 L1963.97 1865.48 L1963.97 1861.55 Z" fill="#000000" fill-rule="evenodd" fill-opacity="1" /><path clip-path="url(#clip030)" d="M2563.93 1861.55 L2580.25 1861.55 L2580.25 1865.48 L2558.3 1865.48 L2558.3 1861.55 Q2560.96 1858.79 2565.55 1854.16 Q2570.15 1849.51 2571.33 1848.17 Q2573.58 1845.65 2574.46 1843.91 Q2575.36 1842.15 2575.36 1840.46 Q2575.36 1837.71 2573.42 1835.97 Q2571.5 1834.23 2568.39 1834.23 Q2566.2 1834.23 2563.74 1835 Q2561.31 1835.76 2558.53 1837.31 L2558.53 1832.59 Q2561.36 1831.46 2563.81 1830.88 Q2566.26 1830.3 2568.3 1830.3 Q2573.67 1830.3 2576.87 1832.98 Q2580.06 1835.67 2580.06 1840.16 Q2580.06 1842.29 2579.25 1844.21 Q2578.46 1846.11 2576.36 1848.7 Q2575.78 1849.37 2572.68 1852.59 Q2569.57 1855.78 2563.93 1861.55 Z" fill="#000000" fill-rule="evenodd" fill-opacity="1" /><polyline clip-path="url(#clip032)" style="stroke:#000000; stroke-linecap:butt; stroke-linejoin:round; stroke-width:2; stroke-opacity:0.1; fill:none" points="
  115.057,1553.96 2640.76,1553.96 
  "/>
<polyline clip-path="url(#clip032)" style="stroke:#000000; stroke-linecap:butt; stroke-linejoin:round; stroke-width:2; stroke-opacity:0.1; fill:none" points="
  115.057,1159.57 2640.76,1159.57 
  "/>
<polyline clip-path="url(#clip032)" style="stroke:#000000; stroke-linecap:butt; stroke-linejoin:round; stroke-width:2; stroke-opacity:0.1; fill:none" points="
  115.057,765.177 2640.76,765.177 
  "/>
<polyline clip-path="url(#clip032)" style="stroke:#000000; stroke-linecap:butt; stroke-linejoin:round; stroke-width:2; stroke-opacity:0.1; fill:none" points="
  115.057,370.787 2640.76,370.787 
  "/>
<polyline clip-path="url(#clip030)" style="stroke:#000000; stroke-linecap:butt; stroke-linejoin:round; stroke-width:4; stroke-opacity:1; fill:none" points="
  115.057,1800.78 115.057,47.2441 
  "/>
<polyline clip-path="url(#clip030)" style="stroke:#000000; stroke-linecap:butt; stroke-linejoin:round; stroke-width:4; stroke-opacity:1; fill:none" points="
  115.057,1553.96 133.955,1553.96 
  "/>
<polyline clip-path="url(#clip030)" style="stroke:#000000; stroke-linecap:butt; stroke-linejoin:round; stroke-width:4; stroke-opacity:1; fill:none" points="
  115.057,1159.57 133.955,1159.57 
  "/>
<polyline clip-path="url(#clip030)" style="stroke:#000000; stroke-linecap:butt; stroke-linejoin:round; stroke-width:4; stroke-opacity:1; fill:none" points="
  115.057,765.177 133.955,765.177 
  "/>
<polyline clip-path="url(#clip030)" style="stroke:#000000; stroke-linecap:butt; stroke-linejoin:round; stroke-width:4; stroke-opacity:1; fill:none" points="
  115.057,370.787 133.955,370.787 
  "/>
<path clip-path="url(#clip030)" d="M62.7928 1539.75 Q59.1817 1539.75 57.353 1543.32 Q55.5475 1546.86 55.5475 1553.99 Q55.5475 1561.1 57.353 1564.66 Q59.1817 1568.2 62.7928 1568.2 Q66.427 1568.2 68.2326 1564.66 Q70.0613 1561.1 70.0613 1553.99 Q70.0613 1546.86 68.2326 1543.32 Q66.427 1539.75 62.7928 1539.75 M62.7928 1536.05 Q68.6029 1536.05 71.6585 1540.66 Q74.7372 1545.24 74.7372 1553.99 Q74.7372 1562.72 71.6585 1567.32 Q68.6029 1571.91 62.7928 1571.91 Q56.9826 1571.91 53.904 1567.32 Q50.8484 1562.72 50.8484 1553.99 Q50.8484 1545.24 53.904 1540.66 Q56.9826 1536.05 62.7928 1536.05 Z" fill="#000000" fill-rule="evenodd" fill-opacity="1" /><path clip-path="url(#clip030)" d="M58.4178 1172.91 L74.7372 1172.91 L74.7372 1176.85 L52.7928 1176.85 L52.7928 1172.91 Q55.4549 1170.16 60.0382 1165.53 Q64.6446 1160.87 65.8252 1159.53 Q68.0705 1157.01 68.9502 1155.27 Q69.8529 1153.51 69.8529 1151.82 Q69.8529 1149.07 67.9085 1147.33 Q65.9872 1145.6 62.8854 1145.6 Q60.6863 1145.6 58.2326 1146.36 Q55.8021 1147.12 53.0243 1148.68 L53.0243 1143.95 Q55.8484 1142.82 58.3021 1142.24 Q60.7558 1141.66 62.7928 1141.66 Q68.1631 1141.66 71.3576 1144.35 Q74.552 1147.03 74.552 1151.52 Q74.552 1153.65 73.7418 1155.57 Q72.9548 1157.47 70.8483 1160.06 Q70.2696 1160.74 67.1678 1163.95 Q64.0659 1167.15 58.4178 1172.91 Z" fill="#000000" fill-rule="evenodd" fill-opacity="1" /><path clip-path="url(#clip030)" d="M65.1539 751.971 L53.3484 770.42 L65.1539 770.42 L65.1539 751.971 M63.927 747.897 L69.8066 747.897 L69.8066 770.42 L74.7372 770.42 L74.7372 774.309 L69.8066 774.309 L69.8066 782.457 L65.1539 782.457 L65.1539 774.309 L49.5521 774.309 L49.5521 769.795 L63.927 747.897 Z" fill="#000000" fill-rule="evenodd" fill-opacity="1" /><path clip-path="url(#clip030)" d="M63.2095 368.924 Q60.0613 368.924 58.2095 371.076 Q56.3808 373.229 56.3808 376.979 Q56.3808 380.706 58.2095 382.882 Q60.0613 385.035 63.2095 385.035 Q66.3576 385.035 68.1863 382.882 Q70.0381 380.706 70.0381 376.979 Q70.0381 373.229 68.1863 371.076 Q66.3576 368.924 63.2095 368.924 M72.4918 354.271 L72.4918 358.53 Q70.7326 357.697 68.927 357.257 Q67.1446 356.817 65.3854 356.817 Q60.7558 356.817 58.3021 359.942 Q55.8715 363.067 55.5243 369.387 Q56.89 367.373 58.9502 366.308 Q61.0104 365.22 63.4872 365.22 Q68.6955 365.22 71.7048 368.391 Q74.7372 371.539 74.7372 376.979 Q74.7372 382.303 71.589 385.521 Q68.4409 388.738 63.2095 388.738 Q57.2141 388.738 54.0428 384.155 Q50.8716 379.549 50.8716 370.822 Q50.8716 362.627 54.7604 357.766 Q58.6493 352.882 65.2002 352.882 Q66.9594 352.882 68.7418 353.229 Q70.5474 353.577 72.4918 354.271 Z" fill="#000000" fill-rule="evenodd" fill-opacity="1" /><polyline clip-path="url(#clip032)" style="stroke:#009af9; stroke-linecap:butt; stroke-linejoin:round; stroke-width:8; stroke-opacity:1; fill:none" points="
  186.539,1527.27 192.496,1527 198.453,1526.73 204.41,1526.46 210.367,1526.18 216.323,1525.9 222.28,1525.62 228.237,1525.33 234.194,1525.05 240.151,1524.76 
  246.108,1524.46 252.064,1524.17 258.021,1523.87 263.978,1523.56 269.935,1523.26 275.892,1522.95 281.849,1522.64 287.805,1522.32 293.762,1522.01 299.719,1521.68 
  305.676,1521.36 311.633,1521.03 317.59,1520.7 323.546,1520.37 329.503,1520.03 335.46,1519.69 341.417,1519.34 347.374,1519 353.331,1518.65 359.287,1518.29 
  365.244,1517.93 371.201,1517.57 377.158,1517.2 383.115,1516.83 389.072,1516.46 395.028,1516.08 400.985,1515.7 406.942,1515.32 412.899,1514.93 418.856,1514.54 
  424.813,1514.14 430.77,1513.74 436.726,1513.34 442.683,1512.93 448.64,1512.52 454.597,1512.1 460.554,1511.68 466.511,1511.26 472.467,1510.83 478.424,1510.39 
  484.381,1509.96 490.338,1509.51 496.295,1509.07 502.252,1508.62 508.208,1508.16 514.165,1507.7 520.122,1507.24 526.079,1506.77 532.036,1506.29 537.993,1505.81 
  543.949,1505.33 549.906,1504.84 555.863,1504.35 561.82,1503.85 567.777,1503.34 573.734,1502.84 579.69,1502.32 585.647,1501.8 591.604,1501.28 597.561,1500.75 
  603.518,1500.21 609.475,1499.67 615.431,1499.13 621.388,1498.58 627.345,1498.02 633.302,1497.46 639.259,1496.89 645.216,1496.32 651.172,1495.74 657.129,1495.15 
  663.086,1494.56 669.043,1493.97 675,1493.36 680.957,1492.75 686.913,1492.14 692.87,1491.52 698.827,1490.89 704.784,1490.26 710.741,1489.62 716.698,1488.97 
  722.655,1488.32 728.611,1487.66 734.568,1486.99 740.525,1486.32 746.482,1485.64 752.439,1484.95 758.396,1484.26 764.352,1483.56 770.309,1482.85 776.266,1482.13 
  782.223,1481.41 788.18,1480.68 794.137,1479.95 800.093,1479.2 806.05,1478.45 812.007,1477.69 817.964,1476.93 823.921,1476.15 829.878,1475.37 835.834,1474.58 
  841.791,1473.78 847.748,1472.98 853.705,1472.16 859.662,1471.34 865.619,1470.51 871.575,1469.67 877.532,1468.83 883.489,1467.97 889.446,1467.11 895.403,1466.23 
  901.36,1465.35 907.316,1464.46 913.273,1463.56 919.23,1462.65 925.187,1461.73 931.144,1460.81 937.101,1459.87 943.057,1458.93 949.014,1457.97 954.971,1457.01 
  960.928,1456.03 966.885,1455.05 972.842,1454.05 978.798,1453.05 984.755,1452.04 990.712,1451.01 996.669,1449.98 1002.63,1448.93 1008.58,1447.88 1014.54,1446.81 
  1020.5,1445.73 1026.45,1444.65 1032.41,1443.55 1038.37,1442.44 1044.32,1441.32 1050.28,1440.18 1056.24,1439.04 1062.19,1437.89 1068.15,1436.72 1074.11,1435.54 
  1080.06,1434.35 1086.02,1433.15 1091.98,1431.94 1097.94,1430.71 1103.89,1429.47 1109.85,1428.22 1115.81,1426.96 1121.76,1425.68 1127.72,1424.39 1133.68,1423.09 
  1139.63,1421.77 1145.59,1420.44 1151.55,1419.1 1157.5,1417.75 1163.46,1416.38 1169.42,1415 1175.37,1413.6 1181.33,1412.19 1187.29,1410.76 1193.24,1409.32 
  1199.2,1407.87 1205.16,1406.4 1211.12,1404.92 1217.07,1403.42 1223.03,1401.91 1228.99,1400.38 1234.94,1398.84 1240.9,1397.28 1246.86,1395.7 1252.81,1394.11 
  1258.77,1392.51 1264.73,1390.88 1270.68,1389.25 1276.64,1387.59 1282.6,1385.92 1288.55,1384.23 1294.51,1382.52 1300.47,1380.8 1306.42,1379.06 1312.38,1377.3 
  1318.34,1375.53 1324.3,1373.73 1330.25,1371.92 1336.21,1370.09 1342.17,1368.25 1348.12,1366.38 1354.08,1364.49 1360.04,1362.59 1365.99,1360.67 1371.95,1358.72 
  1377.91,1356.76 1383.86,1354.78 1389.82,1352.78 1395.78,1350.76 1401.73,1348.71 1407.69,1346.65 1413.65,1344.57 1419.6,1342.46 1425.56,1340.34 1431.52,1338.19 
  1437.47,1336.02 1443.43,1333.83 1449.39,1331.62 1455.35,1329.39 1461.3,1327.13 1467.26,1324.85 1473.22,1322.55 1479.17,1320.22 1485.13,1317.87 1491.09,1315.5 
  1497.04,1313.1 1503,1310.68 1508.96,1308.24 1514.91,1305.77 1520.87,1303.27 1526.83,1300.75 1532.78,1298.21 1538.74,1295.64 1544.7,1293.04 1550.65,1290.42 
  1556.61,1287.77 1562.57,1285.1 1568.53,1282.39 1574.48,1279.66 1580.44,1276.91 1586.4,1274.12 1592.35,1271.31 1598.31,1268.47 1604.27,1265.6 1610.22,1262.7 
  1616.18,1259.78 1622.14,1256.82 1628.09,1253.83 1634.05,1250.82 1640.01,1247.77 1645.96,1244.69 1651.92,1241.58 1657.88,1238.45 1663.83,1235.27 1669.79,1232.07 
  1675.75,1228.84 1681.71,1225.57 1687.66,1222.27 1693.62,1218.94 1699.58,1215.57 1705.53,1212.17 1711.49,1208.73 1717.45,1205.26 1723.4,1201.76 1729.36,1198.22 
  1735.32,1194.64 1741.27,1191.03 1747.23,1187.39 1753.19,1183.7 1759.14,1179.98 1765.1,1176.22 1771.06,1172.43 1777.01,1168.59 1782.97,1164.72 1788.93,1160.81 
  1794.89,1156.85 1800.84,1152.86 1806.8,1148.83 1812.76,1144.76 1818.71,1140.65 1824.67,1136.49 1830.63,1132.3 1836.58,1128.06 1842.54,1123.78 1848.5,1119.46 
  1854.45,1115.09 1860.41,1110.68 1866.37,1106.23 1872.32,1101.73 1878.28,1097.18 1884.24,1092.59 1890.19,1087.95 1896.15,1083.27 1902.11,1078.54 1908.07,1073.76 
  1914.02,1068.94 1919.98,1064.06 1925.94,1059.14 1931.89,1054.16 1937.85,1049.14 1943.81,1044.07 1949.76,1038.94 1955.72,1033.77 1961.68,1028.54 1967.63,1023.26 
  1973.59,1017.92 1979.55,1012.54 1985.5,1007.1 1991.46,1001.6 1997.42,996.049 2003.37,990.442 2009.33,984.779 2015.29,979.058 2021.24,973.281 2027.2,967.445 
  2033.16,961.55 2039.12,955.596 2045.07,949.583 2051.03,943.509 2056.99,937.374 2062.94,931.177 2068.9,924.918 2074.86,918.596 2080.81,912.21 2086.77,905.761 
  2092.73,899.246 2098.68,892.666 2104.64,886.02 2110.6,879.307 2116.55,872.527 2122.51,865.679 2128.47,858.761 2134.42,851.774 2140.38,844.717 2146.34,837.589 
  2152.3,830.39 2158.25,823.118 2164.21,815.773 2170.17,808.354 2176.12,800.86 2182.08,793.292 2188.04,785.647 2193.99,777.925 2199.95,770.126 2205.91,762.248 
  2211.86,754.292 2217.82,746.255 2223.78,738.137 2229.73,729.938 2235.69,721.657 2241.65,713.292 2247.6,704.843 2253.56,696.309 2259.52,687.69 2265.48,678.984 
  2271.43,670.19 2277.39,661.308 2283.35,652.337 2289.3,643.276 2295.26,634.123 2301.22,624.879 2307.17,615.541 2313.13,606.11 2319.09,596.584 2325.04,586.962 
  2331,577.244 2336.96,567.428 2342.91,557.513 2348.87,547.498 2354.83,537.383 2360.78,527.167 2366.74,516.847 2372.7,506.424 2378.66,495.896 2384.61,485.263 
  2390.57,474.522 2396.53,463.673 2402.48,452.716 2408.44,441.648 2414.4,430.469 2420.35,419.178 2426.31,407.774 2432.27,396.254 2438.22,384.619 2444.18,372.867 
  2450.14,360.997 2456.09,349.007 2462.05,336.898 2468.01,324.666 2473.96,312.311 2479.92,299.833 2485.88,287.228 2491.83,274.498 2497.79,261.639 2503.75,248.651 
  2509.71,235.532 2515.66,222.282 2521.62,208.898 2527.58,195.38 2533.53,181.726 2539.49,167.935 2545.45,154.006 2551.4,139.936 2557.36,125.725 2563.32,111.371 
  2569.27,96.8724 
  "/>
<polyline clip-path="url(#clip032)" style="stroke:#e26f46; stroke-linecap:butt; stroke-linejoin:round; stroke-width:8; stroke-opacity:1; fill:none" points="
  186.539,1751.15 192.496,1749.18 198.453,1747.21 204.41,1745.24 210.367,1743.26 216.323,1741.29 222.28,1739.32 228.237,1737.35 234.194,1735.38 240.151,1733.4 
  246.108,1731.43 252.064,1729.46 258.021,1727.49 263.978,1725.52 269.935,1723.54 275.892,1721.57 281.849,1719.6 287.805,1717.63 293.762,1715.66 299.719,1713.68 
  305.676,1711.71 311.633,1709.74 317.59,1707.77 323.546,1705.8 329.503,1703.82 335.46,1701.85 341.417,1699.88 347.374,1697.91 353.331,1695.94 359.287,1693.96 
  365.244,1691.99 371.201,1690.02 377.158,1688.05 383.115,1686.08 389.072,1684.1 395.028,1682.13 400.985,1680.16 406.942,1678.19 412.899,1676.22 418.856,1674.24 
  424.813,1672.27 430.77,1670.3 436.726,1668.33 442.683,1666.36 448.64,1664.39 454.597,1662.41 460.554,1660.44 466.511,1658.47 472.467,1656.5 478.424,1654.53 
  484.381,1652.55 490.338,1650.58 496.295,1648.61 502.252,1646.64 508.208,1644.67 514.165,1642.69 520.122,1640.72 526.079,1638.75 532.036,1636.78 537.993,1634.81 
  543.949,1632.83 549.906,1630.86 555.863,1628.89 561.82,1626.92 567.777,1624.95 573.734,1622.97 579.69,1621 585.647,1619.03 591.604,1617.06 597.561,1615.09 
  603.518,1613.11 609.475,1611.14 615.431,1609.17 621.388,1607.2 627.345,1605.23 633.302,1603.25 639.259,1601.28 645.216,1599.31 651.172,1597.34 657.129,1595.37 
  663.086,1593.4 669.043,1591.42 675,1589.45 680.957,1587.48 686.913,1585.51 692.87,1583.54 698.827,1581.56 704.784,1579.59 710.741,1577.62 716.698,1575.65 
  722.655,1573.68 728.611,1571.7 734.568,1569.73 740.525,1567.76 746.482,1565.79 752.439,1563.82 758.396,1561.84 764.352,1559.87 770.309,1557.9 776.266,1555.93 
  782.223,1553.96 788.18,1551.98 794.137,1550.01 800.093,1548.04 806.05,1546.07 812.007,1544.1 817.964,1542.12 823.921,1540.15 829.878,1538.18 835.834,1536.21 
  841.791,1534.24 847.748,1532.26 853.705,1530.29 859.662,1528.32 865.619,1526.35 871.575,1524.38 877.532,1522.4 883.489,1520.43 889.446,1518.46 895.403,1516.49 
  901.36,1514.52 907.316,1512.55 913.273,1510.57 919.23,1508.6 925.187,1506.63 931.144,1504.66 937.101,1502.69 943.057,1500.71 949.014,1498.74 954.971,1496.77 
  960.928,1494.8 966.885,1492.83 972.842,1490.85 978.798,1488.88 984.755,1486.91 990.712,1484.94 996.669,1482.97 1002.63,1480.99 1008.58,1479.02 1014.54,1477.05 
  1020.5,1475.08 1026.45,1473.11 1032.41,1471.13 1038.37,1469.16 1044.32,1467.19 1050.28,1465.22 1056.24,1463.25 1062.19,1461.27 1068.15,1459.3 1074.11,1457.33 
  1080.06,1455.36 1086.02,1453.39 1091.98,1451.41 1097.94,1449.44 1103.89,1447.47 1109.85,1445.5 1115.81,1443.53 1121.76,1441.56 1127.72,1439.58 1133.68,1437.61 
  1139.63,1435.64 1145.59,1433.67 1151.55,1431.7 1157.5,1429.72 1163.46,1427.75 1169.42,1425.78 1175.37,1423.81 1181.33,1421.84 1187.29,1419.86 1193.24,1417.89 
  1199.2,1415.92 1205.16,1413.95 1211.12,1411.98 1217.07,1410 1223.03,1408.03 1228.99,1406.06 1234.94,1404.09 1240.9,1402.12 1246.86,1400.14 1252.81,1398.17 
  1258.77,1396.2 1264.73,1394.23 1270.68,1392.26 1276.64,1390.28 1282.6,1388.31 1288.55,1386.34 1294.51,1384.37 1300.47,1382.4 1306.42,1380.42 1312.38,1378.45 
  1318.34,1376.48 1324.3,1374.51 1330.25,1372.54 1336.21,1370.56 1342.17,1368.59 1348.12,1366.62 1354.08,1364.65 1360.04,1362.68 1365.99,1360.71 1371.95,1358.73 
  1377.91,1356.76 1383.86,1354.79 1389.82,1352.82 1395.78,1350.85 1401.73,1348.87 1407.69,1346.9 1413.65,1344.93 1419.6,1342.96 1425.56,1340.99 1431.52,1339.01 
  1437.47,1337.04 1443.43,1335.07 1449.39,1333.1 1455.35,1331.13 1461.3,1329.15 1467.26,1327.18 1473.22,1325.21 1479.17,1323.24 1485.13,1321.27 1491.09,1319.29 
  1497.04,1317.32 1503,1315.35 1508.96,1313.38 1514.91,1311.41 1520.87,1309.43 1526.83,1307.46 1532.78,1305.49 1538.74,1303.52 1544.7,1301.55 1550.65,1299.57 
  1556.61,1297.6 1562.57,1295.63 1568.53,1293.66 1574.48,1291.69 1580.44,1289.72 1586.4,1287.74 1592.35,1285.77 1598.31,1283.8 1604.27,1281.83 1610.22,1279.86 
  1616.18,1277.88 1622.14,1275.91 1628.09,1273.94 1634.05,1271.97 1640.01,1270 1645.96,1268.02 1651.92,1266.05 1657.88,1264.08 1663.83,1262.11 1669.79,1260.14 
  1675.75,1258.16 1681.71,1256.19 1687.66,1254.22 1693.62,1252.25 1699.58,1250.28 1705.53,1248.3 1711.49,1246.33 1717.45,1244.36 1723.4,1242.39 1729.36,1240.42 
  1735.32,1238.44 1741.27,1236.47 1747.23,1234.5 1753.19,1232.53 1759.14,1230.56 1765.1,1228.58 1771.06,1226.61 1777.01,1224.64 1782.97,1222.67 1788.93,1220.7 
  1794.89,1218.72 1800.84,1216.75 1806.8,1214.78 1812.76,1212.81 1818.71,1210.84 1824.67,1208.87 1830.63,1206.89 1836.58,1204.92 1842.54,1202.95 1848.5,1200.98 
  1854.45,1199.01 1860.41,1197.03 1866.37,1195.06 1872.32,1193.09 1878.28,1191.12 1884.24,1189.15 1890.19,1187.17 1896.15,1185.2 1902.11,1183.23 1908.07,1181.26 
  1914.02,1179.29 1919.98,1177.31 1925.94,1175.34 1931.89,1173.37 1937.85,1171.4 1943.81,1169.43 1949.76,1167.45 1955.72,1165.48 1961.68,1163.51 1967.63,1161.54 
  1973.59,1159.57 1979.55,1157.59 1985.5,1155.62 1991.46,1153.65 1997.42,1151.68 2003.37,1149.71 2009.33,1147.73 2015.29,1145.76 2021.24,1143.79 2027.2,1141.82 
  2033.16,1139.85 2039.12,1137.88 2045.07,1135.9 2051.03,1133.93 2056.99,1131.96 2062.94,1129.99 2068.9,1128.02 2074.86,1126.04 2080.81,1124.07 2086.77,1122.1 
  2092.73,1120.13 2098.68,1118.16 2104.64,1116.18 2110.6,1114.21 2116.55,1112.24 2122.51,1110.27 2128.47,1108.3 2134.42,1106.32 2140.38,1104.35 2146.34,1102.38 
  2152.3,1100.41 2158.25,1098.44 2164.21,1096.46 2170.17,1094.49 2176.12,1092.52 2182.08,1090.55 2188.04,1088.58 2193.99,1086.6 2199.95,1084.63 2205.91,1082.66 
  2211.86,1080.69 2217.82,1078.72 2223.78,1076.74 2229.73,1074.77 2235.69,1072.8 2241.65,1070.83 2247.6,1068.86 2253.56,1066.88 2259.52,1064.91 2265.48,1062.94 
  2271.43,1060.97 2277.39,1059 2283.35,1057.03 2289.3,1055.05 2295.26,1053.08 2301.22,1051.11 2307.17,1049.14 2313.13,1047.17 2319.09,1045.19 2325.04,1043.22 
  2331,1041.25 2336.96,1039.28 2342.91,1037.31 2348.87,1035.33 2354.83,1033.36 2360.78,1031.39 2366.74,1029.42 2372.7,1027.45 2378.66,1025.47 2384.61,1023.5 
  2390.57,1021.53 2396.53,1019.56 2402.48,1017.59 2408.44,1015.61 2414.4,1013.64 2420.35,1011.67 2426.31,1009.7 2432.27,1007.73 2438.22,1005.75 2444.18,1003.78 
  2450.14,1001.81 2456.09,999.839 2462.05,997.867 2468.01,995.895 2473.96,993.923 2479.92,991.951 2485.88,989.979 2491.83,988.007 2497.79,986.035 2503.75,984.063 
  2509.71,982.091 2515.66,980.119 2521.62,978.147 2527.58,976.175 2533.53,974.203 2539.49,972.231 2545.45,970.259 2551.4,968.287 2557.36,966.316 2563.32,964.344 
  2569.27,962.372 
  "/>
<path clip-path="url(#clip030)" d="
M1784.36 261.215 L2556.57 261.215 L2556.57 105.695 L1784.36 105.695  Z
  " fill="#ffffff" fill-rule="evenodd" fill-opacity="1"/>
<polyline clip-path="url(#clip030)" style="stroke:#000000; stroke-linecap:butt; stroke-linejoin:round; stroke-width:4; stroke-opacity:1; fill:none" points="
  1784.36,261.215 2556.57,261.215 2556.57,105.695 1784.36,105.695 1784.36,261.215 
  "/>
<polyline clip-path="url(#clip030)" style="stroke:#009af9; stroke-linecap:butt; stroke-linejoin:round; stroke-width:4; stroke-opacity:1; fill:none" points="
  1812.42,157.535 1980.8,157.535 
  "/>
<path clip-path="url(#clip030)" d="M2027.11 174.462 Q2027.3 174.673 2027.3 174.884 Q2027.3 175.095 2026.83 175.704 Q2026.39 176.313 2025.43 177.133 Q2024.47 177.952 2023.23 178.725 Q2021.98 179.498 2020.16 180.014 Q2018.33 180.552 2016.41 180.552 Q2012.97 180.552 2010.91 178.093 Q2008.87 175.634 2008.87 171.863 Q2008.87 169.45 2009.66 167.319 Q2010.46 165.164 2011.75 163.641 Q2013.06 162.119 2014.7 161.018 Q2016.36 159.894 2018.1 159.355 Q2019.83 158.816 2021.45 158.816 Q2023.81 158.816 2025.19 160.011 Q2026.58 161.205 2026.58 162.892 Q2026.58 163.29 2026.46 163.782 Q2026.36 164.274 2026.04 165.047 Q2025.73 165.82 2024.94 166.592 Q2024.14 167.342 2022.97 167.834 Q2020.37 168.935 2015.64 168.935 L2013.08 168.935 Q2012.33 171.956 2012.33 173.924 Q2012.33 174.697 2012.47 175.493 Q2012.62 176.266 2012.99 177.25 Q2013.39 178.233 2014.28 178.866 Q2015.19 179.475 2016.5 179.475 Q2016.93 179.475 2017.37 179.451 Q2017.84 179.428 2019.01 179.17 Q2020.2 178.913 2021.26 178.468 Q2022.31 178.023 2023.65 177.062 Q2025.01 176.079 2026.08 174.743 Q2026.46 174.252 2026.72 174.252 Q2026.93 174.252 2027.11 174.462 M2024.98 162.892 Q2024.98 161.603 2024.02 160.737 Q2023.09 159.87 2021.45 159.87 Q2020.93 159.87 2020.3 159.987 Q2019.67 160.104 2018.61 160.596 Q2017.58 161.088 2016.67 161.908 Q2015.75 162.704 2014.84 164.274 Q2013.93 165.82 2013.39 167.881 L2015.36 167.881 Q2016.04 167.881 2016.53 167.881 Q2017.02 167.857 2018.1 167.764 Q2019.2 167.67 2019.99 167.506 Q2020.79 167.319 2021.8 166.944 Q2022.8 166.569 2023.44 166.077 Q2024.09 165.562 2024.54 164.742 Q2024.98 163.922 2024.98 162.892 Z" fill="#000000" fill-rule="evenodd" fill-opacity="1" /><path clip-path="url(#clip030)" d="M2048.96 150.431 Q2048.96 151.349 2048.39 151.874 Q2047.82 152.382 2047.16 152.382 Q2046.54 152.382 2046.21 152.022 Q2045.88 151.661 2045.88 151.202 Q2045.88 150.579 2046.34 150.038 Q2046.8 149.497 2047.49 149.382 Q2046.82 148.956 2045.82 148.956 Q2045.16 148.956 2044.59 149.3 Q2044.03 149.644 2043.68 150.087 Q2043.36 150.53 2043.06 151.169 Q2042.78 151.792 2042.67 152.169 Q2042.57 152.53 2042.49 152.923 L2041.34 157.514 Q2040.78 159.695 2040.78 160.465 Q2040.78 161.416 2041.24 162.056 Q2041.7 162.679 2042.62 162.679 Q2042.98 162.679 2043.39 162.581 Q2043.8 162.466 2044.32 162.171 Q2044.87 161.859 2045.34 161.4 Q2045.83 160.925 2046.31 160.121 Q2046.78 159.318 2047.09 158.285 Q2047.19 157.924 2047.52 157.924 Q2047.93 157.924 2047.93 158.252 Q2047.93 158.531 2047.7 159.121 Q2047.49 159.695 2047.01 160.449 Q2046.55 161.187 2045.95 161.859 Q2045.34 162.515 2044.44 162.974 Q2043.54 163.433 2042.55 163.433 Q2041.14 163.433 2040.21 162.679 Q2039.27 161.925 2038.93 160.875 Q2038.85 161.023 2038.73 161.22 Q2038.62 161.416 2038.27 161.859 Q2037.95 162.285 2037.57 162.613 Q2037.19 162.925 2036.6 163.171 Q2036.03 163.433 2035.4 163.433 Q2034.62 163.433 2033.91 163.204 Q2033.22 162.974 2032.73 162.449 Q2032.24 161.925 2032.24 161.203 Q2032.24 160.4 2032.78 159.842 Q2033.34 159.269 2034.09 159.269 Q2034.57 159.269 2034.95 159.547 Q2035.34 159.826 2035.34 160.433 Q2035.34 161.105 2034.88 161.613 Q2034.42 162.121 2033.77 162.253 Q2034.44 162.679 2035.44 162.679 Q2036.52 162.679 2037.37 161.728 Q2038.22 160.777 2038.63 159.187 Q2039.65 155.366 2040.04 153.661 Q2040.44 151.94 2040.44 151.202 Q2040.44 150.513 2040.26 150.038 Q2040.08 149.562 2039.77 149.349 Q2039.47 149.12 2039.19 149.038 Q2038.93 148.956 2038.63 148.956 Q2038.14 148.956 2037.59 149.152 Q2037.04 149.349 2036.39 149.808 Q2035.75 150.251 2035.14 151.169 Q2034.54 152.087 2034.13 153.35 Q2034.04 153.727 2033.68 153.727 Q2033.29 153.71 2033.29 153.383 Q2033.29 153.104 2033.5 152.53 Q2033.73 151.94 2034.19 151.202 Q2034.67 150.464 2035.27 149.808 Q2035.9 149.136 2036.8 148.677 Q2037.72 148.218 2038.7 148.218 Q2039.14 148.218 2039.57 148.316 Q2040.01 148.398 2040.54 148.644 Q2041.08 148.89 2041.55 149.431 Q2042.03 149.972 2042.32 150.759 Q2042.52 150.382 2042.78 150.021 Q2043.06 149.661 2043.49 149.218 Q2043.93 148.759 2044.54 148.497 Q2045.16 148.218 2045.85 148.218 Q2046.52 148.218 2047.18 148.398 Q2047.83 148.562 2048.39 149.103 Q2048.96 149.628 2048.96 150.431 Z" fill="#000000" fill-rule="evenodd" fill-opacity="1" /><polyline clip-path="url(#clip030)" style="stroke:#e26f46; stroke-linecap:butt; stroke-linejoin:round; stroke-width:4; stroke-opacity:1; fill:none" points="
  1812.42,209.375 1980.8,209.375 
  "/>
<path clip-path="url(#clip030)" d="M2008.87 192.095 L2038.1 192.095 L2038.1 196.03 L2025.84 196.03 L2025.84 226.655 L2021.14 226.655 L2021.14 196.03 L2008.87 196.03 L2008.87 192.095 Z" fill="#000000" fill-rule="evenodd" fill-opacity="1" /><path clip-path="url(#clip030)" d="M2046.37 213.623 Q2041.21 213.623 2039.21 214.803 Q2037.22 215.984 2037.22 218.831 Q2037.22 221.1 2038.71 222.442 Q2040.21 223.762 2042.78 223.762 Q2046.32 223.762 2048.45 221.262 Q2050.6 218.739 2050.6 214.572 L2050.6 213.623 L2046.37 213.623 M2054.86 211.864 L2054.86 226.655 L2050.6 226.655 L2050.6 222.72 Q2049.15 225.081 2046.97 226.215 Q2044.79 227.327 2041.65 227.327 Q2037.66 227.327 2035.3 225.104 Q2032.96 222.859 2032.96 219.109 Q2032.96 214.734 2035.88 212.512 Q2038.82 210.29 2044.63 210.29 L2050.6 210.29 L2050.6 209.873 Q2050.6 206.933 2048.66 205.336 Q2046.74 203.716 2043.24 203.716 Q2041.02 203.716 2038.91 204.248 Q2036.81 204.78 2034.86 205.845 L2034.86 201.91 Q2037.2 201.007 2039.4 200.567 Q2041.6 200.104 2043.68 200.104 Q2049.31 200.104 2052.09 203.021 Q2054.86 205.938 2054.86 211.864 Z" fill="#000000" fill-rule="evenodd" fill-opacity="1" /><path clip-path="url(#clip030)" d="M2085.19 211.007 L2085.19 226.655 L2080.93 226.655 L2080.93 211.146 Q2080.93 207.466 2079.49 205.637 Q2078.06 203.808 2075.19 203.808 Q2071.74 203.808 2069.75 206.007 Q2067.76 208.206 2067.76 212.003 L2067.76 226.655 L2063.47 226.655 L2063.47 200.729 L2067.76 200.729 L2067.76 204.757 Q2069.28 202.419 2071.34 201.262 Q2073.43 200.104 2076.14 200.104 Q2080.6 200.104 2082.9 202.882 Q2085.19 205.637 2085.19 211.007 Z" fill="#000000" fill-rule="evenodd" fill-opacity="1" /><path clip-path="url(#clip030)" d="M2110.74 213.391 Q2110.74 208.762 2108.82 206.216 Q2106.92 203.669 2103.47 203.669 Q2100.05 203.669 2098.13 206.216 Q2096.23 208.762 2096.23 213.391 Q2096.23 217.998 2098.13 220.544 Q2100.05 223.09 2103.47 223.09 Q2106.92 223.09 2108.82 220.544 Q2110.74 217.998 2110.74 213.391 M2115 223.438 Q2115 230.058 2112.06 233.276 Q2109.12 236.516 2103.06 236.516 Q2100.81 236.516 2098.82 236.169 Q2096.83 235.845 2094.96 235.151 L2094.96 231.007 Q2096.83 232.026 2098.66 232.512 Q2100.49 232.998 2102.39 232.998 Q2106.58 232.998 2108.66 230.799 Q2110.74 228.623 2110.74 224.202 L2110.74 222.095 Q2109.42 224.387 2107.36 225.521 Q2105.3 226.655 2102.43 226.655 Q2097.66 226.655 2094.75 223.021 Q2091.83 219.387 2091.83 213.391 Q2091.83 207.373 2094.75 203.739 Q2097.66 200.104 2102.43 200.104 Q2105.3 200.104 2107.36 201.239 Q2109.42 202.373 2110.74 204.665 L2110.74 200.729 L2115 200.729 L2115 223.438 Z" fill="#000000" fill-rule="evenodd" fill-opacity="1" /><path clip-path="url(#clip030)" d="M2145.95 212.628 L2145.95 214.711 L2126.37 214.711 Q2126.65 219.109 2129.01 221.424 Q2131.39 223.715 2135.63 223.715 Q2138.08 223.715 2140.37 223.114 Q2142.69 222.512 2144.96 221.308 L2144.96 225.336 Q2142.66 226.308 2140.26 226.817 Q2137.85 227.327 2135.37 227.327 Q2129.17 227.327 2125.53 223.715 Q2121.92 220.104 2121.92 213.947 Q2121.92 207.581 2125.35 203.854 Q2128.8 200.104 2134.63 200.104 Q2139.86 200.104 2142.89 203.484 Q2145.95 206.841 2145.95 212.628 M2141.69 211.378 Q2141.64 207.882 2139.72 205.799 Q2137.83 203.716 2134.68 203.716 Q2131.11 203.716 2128.96 205.729 Q2126.83 207.743 2126.51 211.401 L2141.69 211.378 Z" fill="#000000" fill-rule="evenodd" fill-opacity="1" /><path clip-path="url(#clip030)" d="M2174.49 211.007 L2174.49 226.655 L2170.23 226.655 L2170.23 211.146 Q2170.23 207.466 2168.8 205.637 Q2167.36 203.808 2164.49 203.808 Q2161.04 203.808 2159.05 206.007 Q2157.06 208.206 2157.06 212.003 L2157.06 226.655 L2152.78 226.655 L2152.78 200.729 L2157.06 200.729 L2157.06 204.757 Q2158.59 202.419 2160.65 201.262 Q2162.73 200.104 2165.44 200.104 Q2169.91 200.104 2172.2 202.882 Q2174.49 205.637 2174.49 211.007 Z" fill="#000000" fill-rule="evenodd" fill-opacity="1" /><path clip-path="url(#clip030)" d="M2187.2 193.368 L2187.2 200.729 L2195.97 200.729 L2195.97 204.04 L2187.2 204.04 L2187.2 218.114 Q2187.2 221.285 2188.06 222.188 Q2188.94 223.09 2191.6 223.09 L2195.97 223.09 L2195.97 226.655 L2191.6 226.655 Q2186.67 226.655 2184.79 224.827 Q2182.92 222.975 2182.92 218.114 L2182.92 204.04 L2179.79 204.04 L2179.79 200.729 L2182.92 200.729 L2182.92 193.368 L2187.2 193.368 Z" fill="#000000" fill-rule="evenodd" fill-opacity="1" /><path clip-path="url(#clip030)" d="M2216.64 190.637 L2220.9 190.637 L2220.9 226.655 L2216.64 226.655 L2216.64 190.637 Z" fill="#000000" fill-rule="evenodd" fill-opacity="1" /><path clip-path="url(#clip030)" d="M2229.82 200.729 L2234.07 200.729 L2234.07 226.655 L2229.82 226.655 L2229.82 200.729 M2229.82 190.637 L2234.07 190.637 L2234.07 196.03 L2229.82 196.03 L2229.82 190.637 Z" fill="#000000" fill-rule="evenodd" fill-opacity="1" /><path clip-path="url(#clip030)" d="M2264.54 211.007 L2264.54 226.655 L2260.28 226.655 L2260.28 211.146 Q2260.28 207.466 2258.84 205.637 Q2257.41 203.808 2254.54 203.808 Q2251.09 203.808 2249.1 206.007 Q2247.11 208.206 2247.11 212.003 L2247.11 226.655 L2242.82 226.655 L2242.82 200.729 L2247.11 200.729 L2247.11 204.757 Q2248.64 202.419 2250.7 201.262 Q2252.78 200.104 2255.49 200.104 Q2259.95 200.104 2262.25 202.882 Q2264.54 205.637 2264.54 211.007 Z" fill="#000000" fill-rule="evenodd" fill-opacity="1" /><path clip-path="url(#clip030)" d="M2295.21 212.628 L2295.21 214.711 L2275.63 214.711 Q2275.9 219.109 2278.26 221.424 Q2280.65 223.715 2284.88 223.715 Q2287.34 223.715 2289.63 223.114 Q2291.95 222.512 2294.21 221.308 L2294.21 225.336 Q2291.92 226.308 2289.51 226.817 Q2287.11 227.327 2284.63 227.327 Q2278.43 227.327 2274.79 223.715 Q2271.18 220.104 2271.18 213.947 Q2271.18 207.581 2274.61 203.854 Q2278.06 200.104 2283.89 200.104 Q2289.12 200.104 2292.15 203.484 Q2295.21 206.841 2295.21 212.628 M2290.95 211.378 Q2290.9 207.882 2288.98 205.799 Q2287.08 203.716 2283.94 203.716 Q2280.37 203.716 2278.22 205.729 Q2276.09 207.743 2275.76 211.401 L2290.95 211.378 Z" fill="#000000" fill-rule="evenodd" fill-opacity="1" /><path clip-path="url(#clip030)" d="M2329.05 213.623 Q2323.89 213.623 2321.9 214.803 Q2319.91 215.984 2319.91 218.831 Q2319.91 221.1 2321.39 222.442 Q2322.89 223.762 2325.46 223.762 Q2329.01 223.762 2331.13 221.262 Q2333.29 218.739 2333.29 214.572 L2333.29 213.623 L2329.05 213.623 M2337.55 211.864 L2337.55 226.655 L2333.29 226.655 L2333.29 222.72 Q2331.83 225.081 2329.65 226.215 Q2327.48 227.327 2324.33 227.327 Q2320.35 227.327 2317.99 225.104 Q2315.65 222.859 2315.65 219.109 Q2315.65 214.734 2318.57 212.512 Q2321.51 210.29 2327.32 210.29 L2333.29 210.29 L2333.29 209.873 Q2333.29 206.933 2331.34 205.336 Q2329.42 203.716 2325.93 203.716 Q2323.7 203.716 2321.6 204.248 Q2319.49 204.78 2317.55 205.845 L2317.55 201.91 Q2319.88 201.007 2322.08 200.567 Q2324.28 200.104 2326.37 200.104 Q2331.99 200.104 2334.77 203.021 Q2337.55 205.938 2337.55 211.864 Z" fill="#000000" fill-rule="evenodd" fill-opacity="1" /><path clip-path="url(#clip030)" d="M2350.53 193.368 L2350.53 200.729 L2359.31 200.729 L2359.31 204.04 L2350.53 204.04 L2350.53 218.114 Q2350.53 221.285 2351.39 222.188 Q2352.27 223.09 2354.93 223.09 L2359.31 223.09 L2359.31 226.655 L2354.93 226.655 Q2350 226.655 2348.13 224.827 Q2346.25 222.975 2346.25 218.114 L2346.25 204.04 L2343.13 204.04 L2343.13 200.729 L2346.25 200.729 L2346.25 193.368 L2350.53 193.368 Z" fill="#000000" fill-rule="evenodd" fill-opacity="1" /><path clip-path="url(#clip030)" d="M2401.53 200.729 L2392.15 213.345 L2402.01 226.655 L2396.99 226.655 L2389.44 216.47 L2381.9 226.655 L2376.88 226.655 L2386.94 213.091 L2377.73 200.729 L2382.75 200.729 L2389.63 209.966 L2396.5 200.729 L2401.53 200.729 Z" fill="#000000" fill-rule="evenodd" fill-opacity="1" /><path clip-path="url(#clip030)" d="M2423.66 205.128 L2453.33 205.128 L2453.33 209.016 L2423.66 209.016 L2423.66 205.128 M2423.66 214.572 L2453.33 214.572 L2453.33 218.507 L2423.66 218.507 L2423.66 214.572 Z" fill="#000000" fill-rule="evenodd" fill-opacity="1" /><path clip-path="url(#clip030)" d="M2488.49 195.174 Q2484.88 195.174 2483.06 198.739 Q2481.25 202.28 2481.25 209.41 Q2481.25 216.516 2483.06 220.081 Q2484.88 223.623 2488.49 223.623 Q2492.13 223.623 2493.93 220.081 Q2495.76 216.516 2495.76 209.41 Q2495.76 202.28 2493.93 198.739 Q2492.13 195.174 2488.49 195.174 M2488.49 191.47 Q2494.31 191.47 2497.36 196.077 Q2500.44 200.66 2500.44 209.41 Q2500.44 218.137 2497.36 222.743 Q2494.31 227.327 2488.49 227.327 Q2482.68 227.327 2479.61 222.743 Q2476.55 218.137 2476.55 209.41 Q2476.55 200.66 2479.61 196.077 Q2482.68 191.47 2488.49 191.47 Z" fill="#000000" fill-rule="evenodd" fill-opacity="1" /></svg>
